<?xml version="1.0" encoding="utf-8"?>
<!-- Generator: Adobe Illustrator 21.0.2, SVG Export Plug-In . SVG Version: 6.00 Build 0)  -->
<svg version="1.1" id="图层_1" xmlns="http://www.w3.org/2000/svg" xmlns:xlink="http://www.w3.org/1999/xlink" x="0px" y="0px"
	 viewBox="0 0 200 200" style="enable-background:new 0 0 200 200;" xml:space="preserve">
<style type="text/css">
	.st0{fill:#FFFFFF;}
</style>
<path class="st0" d="M188.2,67.8c3,0,5.6,1,7.7,2.9c2.1,1.9,3.2,4.3,3.2,7v58.5c0,2.6-1.1,4.9-3.2,6.8c-2.1,1.9-4.7,2.9-7.7,2.9
	h-3.6c-3,0-5.6-1-7.7-2.9c-2.1-1.9-3.2-4.2-3.2-6.8V77.7c0-2.8,1.1-5.1,3.2-7c2.1-1.9,4.7-2.9,7.7-2.9
	C184.6,67.8,188.2,67.8,188.2,67.8z M27.5,67.8c3,0,5.6,1,7.5,2.9c2,1.9,3,4.3,3,7v58.5c0,2.6-1,4.9-3,6.8c-2,1.9-4.5,2.9-7.5,2.9
	h-3.6c-3,0-5.6-1-7.7-2.9c-2.1-1.9-3.2-4.2-3.2-6.8V77.7c0-2.8,1.1-5.1,3.2-7c2.1-1.9,4.7-2.9,7.7-2.9
	C23.9,67.8,27.5,67.8,27.5,67.8z M136.9,21.8c2.4,1.1,4.9,2.5,7.4,4.4s5.1,4,7.4,6.5c2.4,2.5,4.5,5.3,6.2,8.2c1.8,3,3.1,6.1,3.9,9.4
	H49.3c2.1-7,5.5-12.8,10-17.2S68.4,25,73,22.4L62.9,6.5c-0.3-0.3-0.3-0.8-0.1-1.5c0.2-0.7,0.9-1.5,2.1-2.3c1.1-0.9,2-1.4,3-1.3
	c0.9,0.1,1.5,0.2,1.8,0.5L80,18.2c3.7-1.7,7.6-3,11.7-4c4.1-0.9,8.3-1.4,12.7-1.4c9,0,17.4,1.9,25.2,5.6L140,2
	c0.3-0.3,0.8-0.4,1.5-0.4c0.7,0,1.8,0.4,3.3,1.2c1.3,0.7,2.1,1.3,2.3,1.8s0.2,0.9-0.1,1.2L136.9,21.8z M81.6,38.9
	c1.7,0,3.2-0.6,4.4-1.8c1.2-1.2,1.8-2.6,1.8-4.4c0-1.7-0.6-3.2-1.8-4.4c-1.2-1.2-2.6-1.8-4.4-1.8s-3.2,0.6-4.4,1.8
	c-1.2,1.2-1.8,2.6-1.8,4.4c0,1.7,0.6,3.2,1.8,4.4C78.4,38.3,79.8,38.9,81.6,38.9z M130.3,38.1c1.7,0,3.2-0.6,4.4-1.8
	c1.2-1.2,1.8-2.6,1.8-4.4c0-1.7-0.6-3.2-1.8-4.4s-2.6-1.8-4.4-1.8s-3.2,0.6-4.4,1.8s-1.8,2.6-1.8,4.4c0,1.7,0.6,3.2,1.8,4.4
	C127.2,37.5,128.6,38.1,130.3,38.1z M161.8,62.8L162,152c0,2.9-1,5.4-2.9,7.3s-4.3,3-7,3h-2.8v27.8c0,2.6-1,5-2.9,6.9s-4.3,3-7,3
	h-5.7c-2.6,0-4.9-1-6.8-3c-1.9-2-2.9-4.3-2.9-6.9v-27.8H87.5v27.8c0,2.6-1,5-2.9,6.9c-1.9,2-4.3,3-7,3h-5.7c-2.6,0-4.9-1-6.8-3
	c-1.9-2-2.9-4.3-2.9-6.9v-27.8H60c-2.8,0-5.1-1-7-3c-1.9-2-2.9-4.4-2.9-7.3V62.8C50,62.8,161.8,62.8,161.8,62.8z"/>
</svg>
